<?xml version="1.0" encoding="UTF-8"?>
<svg version="1.1" xmlns="http://www.w3.org/2000/svg" width="512" height="512">
<path d="M0 0 C1.03511719 0.350625 2.07023437 0.70125 3.13671875 1.0625 C25.68998462 9.55314127 42.05361598 26.48625899 52.23828125 47.984375 C60.92629141 67.17635076 62.54225115 91.94696822 55.74072266 112.03662109 C50.0378432 127.15282301 40.72298022 142.78255408 27.6875 152.625 C22.25541283 157.42544913 20.7426484 162.93082799 20 170 C19.8059319 174.72067272 19.70461126 179.44557417 19.65820312 184.16992188 C19.63048828 185.11802734 19.60277344 186.06613281 19.57421875 187.04296875 C19.55963623 187.89914795 19.54505371 188.75532715 19.5300293 189.63745117 C18.78845378 192.94294463 17.70803408 193.95534645 15 196 C12.0521473 196.39455787 9.47822717 196.54732315 6.53125 196.51757812 C5.25254028 196.52809204 5.25254028 196.52809204 3.94799805 196.53881836 C1.1316668 196.55641568 -1.68365864 196.5447696 -4.5 196.53125 C-6.45768425 196.53394442 -8.4153672 196.53782642 -10.37304688 196.54284668 C-14.47539007 196.54874408 -18.57738482 196.54017093 -22.6796875 196.52148438 C-27.93920628 196.49869475 -33.19790864 196.51181653 -38.45739746 196.53577423 C-42.4997371 196.55022563 -46.54188305 196.54562923 -50.58422852 196.53526306 C-52.52351986 196.53259396 -54.46282877 196.53587197 -56.40209961 196.54518127 C-59.1122905 196.55533602 -61.82115775 196.53986128 -64.53125 196.51757812 C-65.33344971 196.52567505 -66.13564941 196.53377197 -66.9621582 196.54211426 C-70.5486855 196.48745944 -72.59462528 196.30627151 -75.49716187 194.11332703 C-77.29662464 191.58287931 -77.50901139 190.19764476 -77.5390625 187.11328125 C-77.56226563 186.17419922 -77.58546875 185.23511719 -77.609375 184.26757812 C-77.61710937 182.80481445 -77.61710937 182.80481445 -77.625 181.3125 C-77.76539661 170.90209148 -78.0919508 161.32839577 -85 153 C-86.55572386 151.55306802 -88.14183572 150.13841512 -89.75 148.75 C-104.62886251 135.79170283 -114.13087528 116.41262852 -117 97 C-118.34901682 74.85379558 -115.97055573 57.3370745 -105 38 C-104.51660156 37.14792969 -104.03320312 36.29585937 -103.53515625 35.41796875 C-91.60548545 16.2267592 -71.65323938 2.52442856 -49.82470703 -2.91748047 C-33.66673836 -6.23183733 -15.55449598 -5.50473432 0 0 Z M-78.83886719 32.25292969 C-92.03536425 45.11385149 -99.92196206 62.00407865 -100.29296875 80.49975586 C-100.43736141 101.75616061 -94.61912172 119.07158807 -79.67578125 134.37109375 C-78.04920541 135.96917483 -76.40502107 137.54992029 -74.73046875 139.09765625 C-67.61045805 145.72757061 -62.12531038 154.76089574 -61.68359375 164.66796875 C-61.62643188 165.8748938 -61.62643188 165.8748938 -61.56811523 167.10620117 C-61.52501221 168.12302979 -61.48190918 169.1398584 -61.4375 170.1875 C-61.293125 173.425625 -61.14875 176.66375 -61 180 C-53.08 180 -45.16 180 -37 180 C-34.84230798 164.40803721 -34.84230798 164.40803721 -38.34472656 149.57519531 C-41.86920289 145.60791551 -46.21643363 142.95036759 -50.78857422 140.328125 C-54.34790374 138.19048396 -57.47912865 135.56035446 -60.6875 132.9375 C-61.79327249 132.06867876 -62.90122001 131.20261585 -64.01171875 130.33984375 C-64.99785156 129.56769531 -65.98398437 128.79554688 -67 128 C-67.9075 127.30390625 -68.815 126.6078125 -69.75 125.890625 C-73.67278316 122.59439749 -75.59045795 119.13847873 -76.24804688 114.09912109 C-76.8731161 106.480651 -77.40154945 98.71943532 -72.4296875 92.44140625 C-67.46002666 87.43101048 -63.52033034 84.77655875 -56.36450195 84.61962891 C-43.16600764 84.6531547 -43.16600764 84.6531547 -38 89 C-37.09343843 90.03570139 -36.21713096 91.09876371 -35.375 92.1875 C-33.22351428 95.18504798 -33.22351428 95.18504798 -30 96.1875 C-26.82058315 96.29023705 -26.82058315 96.29023705 -24.4375 93.8125 C-23.633125 92.884375 -22.82875 91.95625 -22 91 C-15.10801025 84.96950897 -8.74073597 84.38721099 0.09765625 84.6171875 C6.72011513 85.26683812 9.98277717 87.82352273 14.375 92.5625 C14.91125 93.366875 15.4475 94.17125 16 95 C16.35578125 95.52980469 16.7115625 96.05960937 17.078125 96.60546875 C18.49247298 100.27917769 18.36862212 103.8467356 18.375 107.75 C18.39949219 108.5234375 18.42398438 109.296875 18.44921875 110.09375 C18.49366858 118.92445025 15.28436049 123.88142228 9.234375 130.15625 C7.41640973 131.94786795 5.58799429 133.72893547 3.75 135.5 C2.81414062 136.4178125 1.87828125 137.335625 0.9140625 138.28125 C-1.38177139 140.53023014 -3.68643432 142.76928929 -6 145 C-9.41059403 143.39464713 -11.61792484 141.59481099 -14.25 138.875 C-14.95640625 138.15054688 -15.6628125 137.42609375 -16.390625 136.6796875 C-16.92171875 136.12539062 -17.4528125 135.57109375 -18 135 C-16.53125279 131.55492737 -14.62760075 129.46334867 -11.90234375 126.91796875 C-11.10119141 126.15033203 -10.30003906 125.38269531 -9.47460938 124.59179688 C-7.78697645 122.99250809 -6.09165863 121.40128883 -4.38867188 119.81835938 C0.65552061 115.23081359 0.65552061 115.23081359 3.12890625 109.10546875 C2.97673382 105.43949656 2.4288653 103.75271401 0 101 C-2.34872531 99.83022506 -2.34872531 99.83022506 -5 100 C-8.5590226 101.5390368 -11.10315248 103.98141167 -13.9375 106.5625 C-19.44018789 111.41962115 -24.25184937 112.4439968 -31.484375 112.23828125 C-39.07800329 111.519009 -43.09213014 108.4330462 -48.04296875 102.7421875 C-50.38789306 100.65469001 -51.895613 100.24416527 -55 100 C-57.83928533 100.92023288 -57.83928533 100.92023288 -60 103 C-61.17340438 106.37353759 -61.4237443 108.10509946 -59.8828125 111.359375 C-57.60340993 114.55621346 -54.89640938 116.91727991 -51.875 119.375 C-51.29169922 119.85831787 -50.70839844 120.34163574 -50.10742188 120.83959961 C-44.95343341 125.09078772 -39.69880254 129.20150551 -34.37109375 133.23242188 C-33.1779244 134.13582153 -31.98588066 135.04070961 -30.79492188 135.94702148 C-29.61666933 136.84337166 -28.43575479 137.73623554 -27.25195312 138.62524414 C-23.11235543 141.77528915 -23.11235543 141.77528915 -22 144 C-21.84323225 146.69655446 -21.74163685 149.37129977 -21.68359375 152.0703125 C-21.66281265 152.86654022 -21.64203156 153.66276794 -21.62062073 154.48312378 C-21.55515851 157.03032685 -21.49625585 159.57763425 -21.4375 162.125 C-21.3943116 163.85027127 -21.35069721 165.57553193 -21.30664062 167.30078125 C-21.19867755 171.53374872 -21.09957993 175.76679371 -21 180 C-13.08 180 -5.16 180 3 180 C3.0928125 175.42125 3.0928125 175.42125 3.1875 170.75 C3.83281394 155.23991067 9.21929226 146.39893784 20.3359375 135.765625 C32.52001816 124.03896716 41.62692297 107.60668163 42.43359375 90.421875 C42.45695536 88.53139389 42.45778831 86.64051659 42.4375 84.75 C42.42992676 83.74928467 42.42235352 82.74856934 42.41455078 81.7175293 C41.95027033 60.66054693 32.66659035 43.89487792 17.7890625 29.421875 C-10.33087909 5.00399855 -52.01998842 7.42678495 -78.83886719 32.25292969 Z " fill="#000000" transform="translate(405,52)"/>
<path d="M0 0 C10.23906578 7.73254248 18.72711365 17.59665562 20.6875 30.6875 C21.96512157 46.28210038 20.35207725 58.93025803 10.6875 71.6875 C12.13769531 71.81705078 12.13769531 71.81705078 13.6171875 71.94921875 C26.39953059 73.32869934 35.78903581 76.92130795 44.6875 86.6875 C50.30785072 94.36583781 52.94780672 101.58901263 52.91455078 111.18334961 C52.91484283 111.89638245 52.91513489 112.60941528 52.91543579 113.34405518 C52.91405419 115.6761131 52.89854896 118.00784237 52.8828125 120.33984375 C52.8790782 121.96651536 52.8762332 123.59318922 52.87423706 125.21986389 C52.86663346 129.48269966 52.84701339 133.74539721 52.8248291 138.00817871 C52.80429986 142.3654595 52.79522026 146.72276282 52.78515625 151.08007812 C52.76376413 159.61595564 52.72860898 168.15169465 52.6875 176.6875 C47.4075 176.6875 42.1275 176.6875 36.6875 176.6875 C36.66768066 174.79588135 36.64786133 172.9042627 36.62744141 170.95532227 C36.55942914 164.67681062 36.48263652 158.39845334 36.39997292 152.12011814 C36.35021386 148.31685025 36.30388365 144.51360742 36.265625 140.71020508 C36.22851252 137.03368073 36.18208568 133.35737714 36.12943649 129.68104362 C36.11102941 128.28460535 36.09587203 126.88812001 36.08415604 125.49160957 C36.16690028 109.56720867 36.16690028 109.56720867 28.26953125 96.28125 C21.28427705 90.10405862 13.81072404 89.53650728 4.80541992 89.54223633 C4.03871475 89.53887772 3.27200958 89.5355191 2.48207092 89.53205872 C-0.03931319 89.52260104 -2.56063052 89.52060817 -5.08203125 89.51953125 C-6.8455152 89.5163149 -8.6089989 89.51295054 -10.3724823 89.50944519 C-14.06514097 89.50346676 -17.75777628 89.50160395 -21.45043945 89.50219727 C-26.16438065 89.50229877 -30.87817084 89.48865246 -35.5920763 89.47142506 C-39.23394956 89.46026431 -42.87578679 89.45827931 -46.5176754 89.45880699 C-48.2546713 89.45763279 -49.99166831 89.4532427 -51.72864723 89.44547462 C-67.99643328 88.93600899 -67.99643328 88.93600899 -82.3125 95.6875 C-89.15664149 102.588676 -90.38709158 109.79369148 -90.51782227 119.24365234 C-90.53776749 120.52452728 -90.55771271 121.80540222 -90.57826233 123.12509155 C-90.59524146 124.50787234 -90.61212045 125.89065435 -90.62890625 127.2734375 C-90.64950055 128.69976368 -90.67049764 130.12608409 -90.69187927 131.55239868 C-90.74684444 135.2907034 -90.79636543 139.02906085 -90.84472656 142.76745605 C-90.89512924 146.58850753 -90.95071695 150.40948326 -91.00585938 154.23046875 C-91.11312797 161.71608324 -91.21416155 169.2017619 -91.3125 176.6875 C-96.5925 176.6875 -101.8725 176.6875 -107.3125 176.6875 C-107.40322257 167.35947501 -107.4764576 158.03174773 -107.51974869 148.70337963 C-107.54053651 144.3708513 -107.56869092 140.03864302 -107.61425781 135.70629883 C-107.65803275 131.51764639 -107.68170315 127.32929989 -107.69200897 123.14043617 C-107.69934404 121.55018619 -107.71366625 119.95995109 -107.73542023 118.36983299 C-107.91425685 104.74359336 -106.049695 93.88745278 -96.3125 83.6875 C-87.37762129 75.15798441 -77.48389267 72.15834691 -65.3125 71.6875 C-65.89257812 70.92179687 -65.89257812 70.92179687 -66.484375 70.140625 C-75.2515349 57.90132256 -76.74202595 45.38315186 -75.3125 30.6875 C-73.04173257 18.29905286 -65.1794763 7.321956 -55 0.03125 C-38.45853978 -10.51393089 -16.49633036 -10.94823719 0 0 Z M-52.3125 20.6875 C-58.26934175 29.45976447 -59.12110965 37.15279681 -58.3125 47.6875 C-56.12872185 56.93424063 -51.15351899 63.11888233 -43.1875 68.0625 C-35.32708088 72.64162267 -26.26387226 73.09301976 -17.41796875 71.00390625 C-7.53444214 67.34502774 -1.9168373 61.05068257 2.6875 51.6875 C5.46216577 43.5484804 4.55686703 33.54186893 0.9375 25.86328125 C-3.398493 18.31594344 -9.86752726 12.8846498 -18.203125 10.04296875 C-31.49468706 7.8030944 -43.27510706 10.40495515 -52.3125 20.6875 Z " fill="#000000" transform="translate(123.3125,319.3125)"/>
<path d="M0 0 C1.18142578 -0.01891296 1.18142578 -0.01891296 2.38671875 -0.03820801 C3.22847656 -0.03011108 4.07023437 -0.02201416 4.9375 -0.01367188 C5.81019531 -0.01749878 6.68289063 -0.02132568 7.58203125 -0.02526855 C9.42449092 -0.02798678 11.26698924 -0.02063182 13.109375 -0.00390625 C15.92795934 0.01750565 18.74399485 -0.00370989 21.5625 -0.02929688 C23.35417229 -0.02665358 25.14584299 -0.02152857 26.9375 -0.01367188 C27.77925781 -0.0217688 28.62101562 -0.02986572 29.48828125 -0.03820801 C30.27589844 -0.02559937 31.06351562 -0.01299072 31.875 0 C32.90947266 0.00477356 32.90947266 0.00477356 33.96484375 0.00964355 C36.90022014 0.76546665 38.04418558 2.17898721 39.9375 4.51757812 C40.44086456 7.37243652 40.44086456 7.37243652 40.44543457 10.7421875 C40.45671387 12.02085693 40.46799316 13.29952637 40.47961426 14.61694336 C40.47183723 16.03174055 40.46364457 17.4465355 40.45507812 18.86132812 C40.46049892 20.35295292 40.46762134 21.84457235 40.47631836 23.33618164 C40.49456004 27.3858044 40.4874809 31.43501973 40.47480202 35.48464966 C40.46467864 39.72154849 40.47406585 43.95841231 40.48034668 48.1953125 C40.48762503 55.31061062 40.47803052 62.42574271 40.45898438 69.54101562 C40.43721519 77.76860612 40.44426643 85.99580015 40.46629 94.22338104 C40.4844387 101.28592067 40.48700494 108.3483409 40.47653532 115.4108963 C40.47029744 119.62970987 40.46947274 123.84833706 40.48268127 128.06713867 C40.49423156 132.03338185 40.48622962 135.99911361 40.46310425 139.96530151 C40.45781268 141.4213679 40.45933866 142.8774773 40.46815491 144.33352661 C40.47907434 146.31999175 40.462957 148.30655088 40.44543457 150.29296875 C40.44392647 151.40498657 40.44241837 152.51700439 40.44086456 153.66271973 C39.82264061 157.16900913 38.70185551 158.34644234 35.9375 160.51757812 C33.96484375 161.0255127 33.96484375 161.0255127 31.875 161.03515625 C31.08738281 161.04776489 30.29976563 161.06037354 29.48828125 161.07336426 C28.64652344 161.06526733 27.80476563 161.05717041 26.9375 161.04882812 C26.06480469 161.05265503 25.19210937 161.05648193 24.29296875 161.0604248 C22.45050908 161.06314303 20.60801076 161.05578807 18.765625 161.0390625 C15.94704066 161.0176506 13.13100515 161.03886614 10.3125 161.06445312 C8.52082771 161.06180983 6.72915701 161.05668482 4.9375 161.04882812 C4.09574219 161.05692505 3.25398438 161.06502197 2.38671875 161.07336426 C1.59910156 161.06075562 0.81148438 161.04814697 0 161.03515625 C-1.03447266 161.03038269 -1.03447266 161.03038269 -2.08984375 161.0255127 C-5.02522014 160.2696896 -6.16918558 158.85616904 -8.0625 156.51757812 C-8.56586456 153.66271973 -8.56586456 153.66271973 -8.57043457 150.29296875 C-8.58171387 149.01429932 -8.59299316 147.73562988 -8.60461426 146.41821289 C-8.59683723 145.0034157 -8.58864457 143.58862075 -8.58007812 142.17382812 C-8.58549892 140.68220333 -8.59262134 139.1905839 -8.60131836 137.69897461 C-8.61956004 133.64935185 -8.6124809 129.60013652 -8.59980202 125.55050659 C-8.58967864 121.31360776 -8.59906585 117.07674394 -8.60534668 112.83984375 C-8.61262503 105.72454563 -8.60303052 98.60941354 -8.58398438 91.49414062 C-8.56221519 83.26655013 -8.56926643 75.0393561 -8.59129 66.81177521 C-8.6094387 59.74923558 -8.61200494 52.68681535 -8.60153532 45.62425995 C-8.59529744 41.40544638 -8.59447274 37.18681919 -8.60768127 32.96801758 C-8.61923156 29.0017744 -8.61122962 25.03604264 -8.58810425 21.06985474 C-8.58281268 19.61378835 -8.58433866 18.15767895 -8.59315491 16.70162964 C-8.60407434 14.7151645 -8.587957 12.72860537 -8.57043457 10.7421875 C-8.56892647 9.63016968 -8.56741837 8.51815186 -8.56586456 7.37243652 C-7.71310087 2.53594273 -4.88645469 0.02254848 0 0 Z M7.9375 16.51757812 C7.9375 58.75757813 7.9375 100.99757813 7.9375 144.51757812 C13.2175 144.51757812 18.4975 144.51757812 23.9375 144.51757812 C23.9375 102.27757812 23.9375 60.03757812 23.9375 16.51757812 C18.6575 16.51757812 13.3775 16.51757812 7.9375 16.51757812 Z " fill="#000000" transform="translate(360.0625,335.482421875)"/>
<path d="M0 0 C1.18142578 -0.01891296 1.18142578 -0.01891296 2.38671875 -0.03820801 C3.22847656 -0.03011108 4.07023437 -0.02201416 4.9375 -0.01367188 C5.81019531 -0.01749878 6.68289063 -0.02132568 7.58203125 -0.02526855 C9.42449092 -0.02798678 11.26698924 -0.02063182 13.109375 -0.00390625 C15.92795934 0.01750565 18.74399485 -0.00370989 21.5625 -0.02929688 C23.35417229 -0.02665358 25.14584299 -0.02152857 26.9375 -0.01367188 C27.77925781 -0.0217688 28.62101562 -0.02986572 29.48828125 -0.03820801 C30.27589844 -0.02559937 31.06351562 -0.01299072 31.875 0 C32.90947266 0.00477356 32.90947266 0.00477356 33.96484375 0.00964355 C37.09171373 0.81477388 38.09847113 1.8406418 39.9375 4.51757812 C40.53561623 7.82719714 40.4836234 11.09951661 40.45507812 14.45507812 C40.4620874 15.4636084 40.46909668 16.47213867 40.47631836 17.51123047 C40.49393218 20.84695927 40.4822631 24.1818406 40.46875 27.51757812 C40.47144393 29.83398603 40.47532551 32.15039284 40.48034668 34.46679688 C40.48624634 39.32237511 40.47766338 44.17765908 40.45898438 49.03320312 C40.43619496 55.26122458 40.44931548 61.48855658 40.47327423 67.71655273 C40.48771932 72.50005297 40.48313205 77.2833894 40.47276306 82.06689453 C40.47009223 84.36344484 40.473378 86.66000995 40.48268127 88.95654297 C40.49282527 92.16478953 40.47737483 95.37191519 40.45507812 98.58007812 C40.46317505 99.53188965 40.47127197 100.48370117 40.47961426 101.46435547 C40.39730174 107.84827924 40.39730174 107.84827924 38.15905762 111.10632324 C35.79982707 112.6050355 34.63750896 113.02240869 31.875 113.03515625 C30.69357422 113.05406921 30.69357422 113.05406921 29.48828125 113.07336426 C28.64652344 113.06526733 27.80476563 113.05717041 26.9375 113.04882812 C26.06480469 113.05265503 25.19210937 113.05648193 24.29296875 113.0604248 C22.45050908 113.06314303 20.60801076 113.05578807 18.765625 113.0390625 C15.94704066 113.0176506 13.13100515 113.03886614 10.3125 113.06445312 C8.52082771 113.06180983 6.72915701 113.05668482 4.9375 113.04882812 C3.67486328 113.06097351 3.67486328 113.06097351 2.38671875 113.07336426 C1.20529297 113.05445129 1.20529297 113.05445129 0 113.03515625 C-0.68964844 113.03197388 -1.37929688 113.0287915 -2.08984375 113.0255127 C-5.21671373 112.22038237 -6.22347113 111.19451445 -8.0625 108.51757812 C-8.66061623 105.20795911 -8.6086234 101.93563964 -8.58007812 98.58007812 C-8.5870874 97.57154785 -8.59409668 96.56301758 -8.60131836 95.52392578 C-8.61893218 92.18819698 -8.6072631 88.85331565 -8.59375 85.51757812 C-8.59644393 83.20117022 -8.60032551 80.88476341 -8.60534668 78.56835938 C-8.61124634 73.71278114 -8.60266338 68.85749717 -8.58398438 64.00195312 C-8.56119496 57.77393167 -8.57431548 51.54659967 -8.59827423 45.31860352 C-8.61271932 40.53510328 -8.60813205 35.75176685 -8.59776306 30.96826172 C-8.59509223 28.67171141 -8.598378 26.3751463 -8.60768127 24.07861328 C-8.61782527 20.87036672 -8.60237483 17.66324106 -8.58007812 14.45507812 C-8.58817505 13.5032666 -8.59627197 12.55145508 -8.60461426 11.57080078 C-8.52230174 5.18687701 -8.52230174 5.18687701 -6.28405762 1.92883301 C-3.92482707 0.43012075 -2.76250896 0.01274756 0 0 Z M7.9375 16.51757812 C7.9375 42.91757812 7.9375 69.31757813 7.9375 96.51757812 C13.2175 96.51757812 18.4975 96.51757812 23.9375 96.51757812 C23.9375 70.11757813 23.9375 43.71757812 23.9375 16.51757812 C18.6575 16.51757812 13.3775 16.51757812 7.9375 16.51757812 Z " fill="#000000" transform="translate(288.0625,383.482421875)"/>
<path d="M0 0 C1.5258094 0.3520047 1.5258094 0.3520047 3.08244324 0.71112061 C5.21567677 1.20667489 7.34761547 1.70783374 9.47827148 2.21435547 C12.73480836 2.98540249 15.99665586 3.72998198 19.25976562 4.47265625 C21.34021403 4.95935743 23.42030587 5.44758583 25.5 5.9375 C26.47089066 6.15746643 27.44178131 6.37743286 28.4420929 6.60406494 C37.9544843 8.90724204 37.9544843 8.90724204 40.91796875 12.734375 C42.4253196 19.48738127 39.94680859 24.95999987 36.90234375 30.86328125 C36.49010559 31.69721909 36.07786743 32.53115692 35.65313721 33.3903656 C34.34128579 36.03450712 33.00525693 38.66552265 31.66796875 41.296875 C30.78482435 43.06624266 29.90329867 44.83641926 29.0234375 46.60742188 C27.03332046 50.60466691 25.02792041 54.59374051 23.00598145 58.57498169 C22.26475478 60.04610414 21.53293116 61.52199332 20.80944824 63.00192261 C20.45886353 63.71792633 20.10827881 64.43393005 19.74707031 65.17163086 C19.43787659 65.80975204 19.12868286 66.44787323 18.81011963 67.10533142 C17.50823358 69.48254043 16.38992815 70.60433642 13.91796875 71.734375 C10.41796875 72.171875 10.41796875 72.171875 6.91796875 71.734375 C3.7693503 69.10878287 2.0512607 66.44305762 0.33984375 62.75 C-0.0984375 61.81542969 -0.53671875 60.88085938 -0.98828125 59.91796875 C-1.43171875 58.94988281 -1.87515625 57.98179687 -2.33203125 56.984375 C-2.7909375 56.00082031 -3.24984375 55.01726562 -3.72265625 54.00390625 C-4.85027246 51.5842298 -5.96972185 49.1611163 -7.08203125 46.734375 C-17.32581643 51.31305745 -27.55112776 55.92669962 -37.72265625 60.6640625 C-38.59660034 61.07094299 -39.47054443 61.47782349 -40.37097168 61.89703369 C-43.93498807 63.55750219 -47.49824824 65.21956988 -51.06005859 66.88476562 C-53.71720794 68.12632616 -56.37605762 69.36418352 -59.03515625 70.6015625 C-59.82794983 70.97344696 -60.62074341 71.34533142 -61.43756104 71.72848511 C-66.25007096 73.96452763 -71.09101165 75.92997312 -76.08203125 77.734375 C-77.25357418 75.44508447 -78.41941199 73.15319138 -79.58203125 70.859375 C-79.91589844 70.20839844 -80.24976563 69.55742187 -80.59375 68.88671875 C-83.08203125 63.9609375 -83.08203125 63.9609375 -83.08203125 61.734375 C-60.85509008 51.15820179 -38.55905528 40.76893307 -16.08203125 30.734375 C-17.80506733 25.3728752 -20.08819226 20.45572578 -22.69140625 15.4765625 C-25.05733938 10.66516907 -25.51465133 7.09658706 -25.08203125 1.734375 C-20.66031653 -6.30510631 -7.18043618 -1.70446123 0 0 Z M-1.08203125 18.734375 C0.34717983 21.98808226 1.78777114 25.23662782 3.23046875 28.484375 C3.83665039 29.86496094 3.83665039 29.86496094 4.45507812 31.2734375 C4.85146484 32.16289062 5.24785156 33.05234375 5.65625 33.96875 C6.01759033 34.78569336 6.37893066 35.60263672 6.7512207 36.44433594 C8.03925902 39.1342073 8.03925902 39.1342073 10.91796875 42.734375 C14.21796875 36.464375 17.51796875 30.194375 20.91796875 23.734375 C17.29958781 21.92518453 14.38741819 21.0036825 10.48046875 20.109375 C9.36800781 19.84898437 8.25554687 19.58859375 7.109375 19.3203125 C4.26673839 18.79840859 1.79113642 18.68863849 -1.08203125 18.734375 Z " fill="#000000" transform="translate(247.08203125,266.265625)"/>
<path d="M0 0 C1.18142578 -0.01891296 1.18142578 -0.01891296 2.38671875 -0.03820801 C3.22847656 -0.03011108 4.07023438 -0.02201416 4.9375 -0.01367188 C5.81019531 -0.01749878 6.68289062 -0.02132568 7.58203125 -0.02526855 C9.42449092 -0.02798678 11.26698924 -0.02063182 13.109375 -0.00390625 C15.92795934 0.01750565 18.74399485 -0.00370989 21.5625 -0.02929688 C23.35417229 -0.02665358 25.14584299 -0.02152857 26.9375 -0.01367188 C27.77925781 -0.0217688 28.62101562 -0.02986572 29.48828125 -0.03820801 C30.27589844 -0.02559937 31.06351563 -0.01299072 31.875 0 C32.90947266 0.00477356 32.90947266 0.00477356 33.96484375 0.00964355 C36.96439617 0.78199118 38.10664165 2.04153981 39.9375 4.51757812 C40.44543457 7.70507812 40.44543457 7.70507812 40.45507812 11.51757812 C40.4620874 12.21399414 40.46909668 12.91041016 40.47631836 13.62792969 C40.49389196 15.92488744 40.48227919 18.22060833 40.46875 20.51757812 C40.47144513 22.11653886 40.47532773 23.715498 40.48034668 25.31445312 C40.48624082 28.66357038 40.47768192 32.01226056 40.45898438 35.36132812 C40.43619435 39.65236403 40.44931796 43.94239924 40.47327423 48.23339844 C40.4877348 51.53458179 40.48312515 54.83552823 40.47276306 58.13671875 C40.47009646 59.71875121 40.47336322 61.30080524 40.48268127 62.8828125 C40.49285179 65.09497975 40.4773419 67.30553112 40.45507812 69.51757812 C40.45030457 71.40476562 40.45030457 71.40476562 40.44543457 73.33007812 C39.9375 76.51757812 39.9375 76.51757812 38.15905762 78.92272949 C35.77749861 80.63244258 34.75731025 81.02185587 31.875 81.03515625 C30.69357422 81.05406921 30.69357422 81.05406921 29.48828125 81.07336426 C28.64652344 81.06526733 27.80476563 81.05717041 26.9375 81.04882812 C26.06480469 81.05265503 25.19210938 81.05648193 24.29296875 81.0604248 C22.45050908 81.06314303 20.60801076 81.05578807 18.765625 81.0390625 C15.94704066 81.0176506 13.13100515 81.03886614 10.3125 81.06445312 C8.52082771 81.06180983 6.72915701 81.05668482 4.9375 81.04882812 C3.67486328 81.06097351 3.67486328 81.06097351 2.38671875 81.07336426 C1.20529297 81.05445129 1.20529297 81.05445129 0 81.03515625 C-0.68964844 81.03197388 -1.37929687 81.0287915 -2.08984375 81.0255127 C-5.08939617 80.25316507 -6.23164165 78.99361644 -8.0625 76.51757812 C-8.57043457 73.33007812 -8.57043457 73.33007812 -8.58007812 69.51757812 C-8.5870874 68.82116211 -8.59409668 68.12474609 -8.60131836 67.40722656 C-8.61889196 65.11026881 -8.60727919 62.81454792 -8.59375 60.51757812 C-8.59644513 58.91861739 -8.60032773 57.31965825 -8.60534668 55.72070312 C-8.61124082 52.37158587 -8.60268192 49.02289569 -8.58398438 45.67382812 C-8.56119435 41.38279222 -8.57431796 37.09275701 -8.59827423 32.80175781 C-8.6127348 29.50057446 -8.60812515 26.19962802 -8.59776306 22.8984375 C-8.59509646 21.31640504 -8.59836322 19.73435101 -8.60768127 18.15234375 C-8.61785179 15.9401765 -8.6023419 13.72962513 -8.58007812 11.51757812 C-8.57689575 10.25945312 -8.57371338 9.00132812 -8.57043457 7.70507812 C-8.0625 4.51757812 -8.0625 4.51757812 -6.28405762 2.11242676 C-3.90249861 0.40271367 -2.88231025 0.01330038 0 0 Z M7.9375 16.51757812 C7.9375 32.35757812 7.9375 48.19757813 7.9375 64.51757812 C13.2175 64.51757812 18.4975 64.51757812 23.9375 64.51757812 C23.9375 48.67757812 23.9375 32.83757812 23.9375 16.51757812 C18.6575 16.51757812 13.3775 16.51757812 7.9375 16.51757812 Z " fill="#000000" transform="translate(216.0625,415.482421875)"/>
<path d="M0 0 C1.10794922 -0.01260864 2.21589844 -0.02521729 3.35742188 -0.03820801 C4.54916016 -0.03011108 5.74089844 -0.02201416 6.96875 -0.01367188 C8.19658203 -0.01749878 9.42441406 -0.02132568 10.68945312 -0.02526855 C13.28516459 -0.02799029 15.88090336 -0.02061099 18.4765625 -0.00390625 C22.45374599 0.01749738 26.42912282 -0.0037015 30.40625 -0.02929688 C32.92708733 -0.02665365 35.44792353 -0.02152878 37.96875 -0.01367188 C39.16048828 -0.0217688 40.35222656 -0.02986572 41.58007812 -0.03820801 C43.24200195 -0.01929504 43.24200195 -0.01929504 44.9375 0 C45.91138672 0.00318237 46.88527344 0.00636475 47.88867188 0.00964355 C51.2042354 0.66237159 52.39783823 1.89852789 54.46875 4.51757812 C56.18119956 13.10500902 53.89363784 21.32958235 49.1484375 28.51757812 C44.29448914 34.67121757 37.98739919 38.4587924 30.46875 40.51757812 C21.61804815 41.30634534 13.1706815 41.47762201 5.46875 36.51757812 C4.76234375 36.081875 4.0559375 35.64617187 3.328125 35.19726562 C-3.29001619 30.7116366 -7.86190362 24.40903375 -9.53125 16.51757812 C-10.47698132 5.72169136 -10.47698132 5.72169136 -7.84814453 2.37463379 C-5.00234296 0.09364436 -3.61126173 0.01180053 0 0 Z M9.46875 16.51757812 C13.72128728 22.09195088 13.72128728 22.09195088 19.8359375 23.85351562 C25.57753831 23.94294866 28.96727807 23.45636607 33.46875 19.51757812 C34.12875 18.52757812 34.78875 17.53757812 35.46875 16.51757812 C26.88875 16.51757812 18.30875 16.51757812 9.46875 16.51757812 Z " fill="#000000" transform="translate(353.53125,279.482421875)"/>
<path d="M0 0 C26.4 0 52.8 0 80 0 C80 5.28 80 10.56 80 16 C53.6 16 27.2 16 0 16 C0 10.72 0 5.44 0 0 Z " fill="#000000" transform="translate(336,256)"/>
<path d="M0 0 C5.28 0 10.56 0 16 0 C16 21.12 16 42.24 16 64 C10.72 64 5.44 64 0 64 C0 42.88 0 21.76 0 0 Z " fill="#000000" transform="translate(128,432)"/>
<path d="M0 0 C5.28 0 10.56 0 16 0 C16 21.12 16 42.24 16 64 C10.72 64 5.44 64 0 64 C0 42.88 0 21.76 0 0 Z " fill="#000000" transform="translate(48,432)"/>
<path d="M0 0 C1.04796218 0.84643099 2.08792692 1.70276192 3.125 2.5625 C3.70507812 3.03816406 4.28515625 3.51382813 4.8828125 4.00390625 C7.82159088 6.77459952 10.37148276 9.93339656 13 13 C7.39 18.61 1.78 24.22 -4 30 C-7.84281736 28.07859132 -9.80431927 26.4073184 -12.75 23.375 C-13.54921875 22.55773437 -14.3484375 21.74046875 -15.171875 20.8984375 C-15.77515625 20.27195313 -16.3784375 19.64546875 -17 19 C-15.60652624 15.84795019 -13.97514921 13.73828227 -11.5234375 11.328125 C-10.51796875 10.33232422 -10.51796875 10.33232422 -9.4921875 9.31640625 C-8.79351562 8.63449219 -8.09484375 7.95257813 -7.375 7.25 C-6.66859375 6.55261719 -5.9621875 5.85523438 -5.234375 5.13671875 C-3.49401297 3.41987512 -1.74915019 1.70788168 0 0 Z " fill="#000000" transform="translate(296,203)"/>
<path d="M0 0 C6.41069287 5.27101414 12.18590512 11.09128152 18 17 C17.15356901 18.04796218 16.29723808 19.08792692 15.4375 20.125 C14.96183594 20.70507812 14.48617188 21.28515625 13.99609375 21.8828125 C11.22540048 24.82159088 8.06660344 27.37148276 5 30 C-0.61 24.39 -6.22 18.78 -12 13 C-8.04354855 8.38413998 -4.30058488 4.19819 0 0 Z " fill="#000000" transform="translate(455,203)"/>
<path d="M0 0 C7 6 7 6 13 13 C7.39 18.61 1.78 24.22 -4 30 C-11 24 -11 24 -17 17 C-11.39 11.39 -5.78 5.78 0 0 Z " fill="#000000" transform="translate(460,39)"/>
<path d="M0 0 C6.41069287 5.27101414 12.18590512 11.09128152 18 17 C17.15356901 18.04796218 16.29723808 19.08792692 15.4375 20.125 C14.96183594 20.70507812 14.48617188 21.28515625 13.99609375 21.8828125 C11.22540048 24.82159088 8.06660344 27.37148276 5 30 C-0.61 24.39 -6.22 18.78 -12 13 C-8.04354855 8.38413998 -4.30058488 4.19819 0 0 Z " fill="#000000" transform="translate(291,39)"/>
<path d="M0 0 C7.92 0 15.84 0 24 0 C24 5.28 24 10.56 24 16 C16.08 16 8.16 16 0 16 C0 10.72 0 5.44 0 0 Z " fill="#000000" transform="translate(480,128)"/>
<path d="M0 0 C7.92 0 15.84 0 24 0 C24 5.28 24 10.56 24 16 C16.08 16 8.16 16 0 16 C0 10.72 0 5.44 0 0 Z " fill="#000000" transform="translate(248,128)"/>
<path d="M0 0 C5.28 0 10.56 0 16 0 C16 7.92 16 15.84 16 24 C10.72 24 5.44 24 0 24 C0 16.08 0 8.16 0 0 Z " fill="#000000" transform="translate(368,8)"/>
</svg>
